<mxfile host="Electron" agent="Mozilla/5.0 (X11; Linux x86_64) AppleWebKit/537.36 (KHTML, like Gecko) draw.io/26.2.2 Chrome/134.0.6998.178 Electron/35.1.2 Safari/537.36" version="26.2.2">
  <diagram name="Page-1" id="RYryXJgeClwT_s10glKc">
    <mxGraphModel dx="1191" dy="703" grid="1" gridSize="10" guides="1" tooltips="1" connect="1" arrows="1" fold="1" page="1" pageScale="1" pageWidth="1200" pageHeight="1600" math="0" shadow="0">
      <root>
        <mxCell id="0" />
        <mxCell id="1" parent="0" />
        <mxCell id="uUtpc5BEV1a3jRWs49Oi-1" value="&lt;p style=&quot;margin:0px;margin-top:4px;margin-left:7px;text-align:left;&quot;&gt;&lt;b&gt;req&lt;/b&gt;  ReqDiagram&lt;/p&gt;" style="html=1;shape=mxgraph.sysml.package;overflow=fill;labelX=110;strokeWidth=2;align=center;" vertex="1" parent="1">
          <mxGeometry x="170" y="130" width="950" height="700" as="geometry" />
        </mxCell>
        <mxCell id="uUtpc5BEV1a3jRWs49Oi-2" value="" style="rounded=0;html=1;labelBackgroundColor=none;endArrow=none;edgeStyle=elbowEdgeStyle;elbow=vertical;startArrow=sysMLPackCont;startSize=12;exitX=0.5;exitY=1;exitDx=0;exitDy=0;" edge="1" source="uUtpc5BEV1a3jRWs49Oi-9" target="uUtpc5BEV1a3jRWs49Oi-16" parent="1">
          <mxGeometry relative="1" as="geometry">
            <mxPoint x="540" y="360.0000000000001" as="sourcePoint" />
            <mxPoint x="450" y="450" as="targetPoint" />
          </mxGeometry>
        </mxCell>
        <mxCell id="uUtpc5BEV1a3jRWs49Oi-3" value="" style="rounded=0;html=1;labelBackgroundColor=none;endArrow=none;edgeStyle=elbowEdgeStyle;elbow=vertical;startArrow=sysMLPackCont;startSize=12;exitX=0.5;exitY=1;exitDx=0;exitDy=0;" edge="1" source="uUtpc5BEV1a3jRWs49Oi-9" target="uUtpc5BEV1a3jRWs49Oi-10" parent="1">
          <mxGeometry relative="1" as="geometry">
            <mxPoint x="540" y="360" as="sourcePoint" />
            <mxPoint x="630" y="450.0000000000001" as="targetPoint" />
          </mxGeometry>
        </mxCell>
        <mxCell id="uUtpc5BEV1a3jRWs49Oi-4" value="" style="fontStyle=1;align=center;verticalAlign=middle;childLayout=stackLayout;horizontal=1;horizontalStack=0;resizeParent=1;resizeParentMax=0;resizeLast=0;marginBottom=0;" vertex="1" parent="1">
          <mxGeometry x="545" y="180" width="200" height="130" as="geometry" />
        </mxCell>
        <mxCell id="uUtpc5BEV1a3jRWs49Oi-5" value="&amp;lt;&amp;lt;requirement&amp;gt;&amp;gt;" style="html=1;align=center;spacing=0;verticalAlign=middle;strokeColor=none;fillColor=none;whiteSpace=wrap;spacingTop=3;" vertex="1" parent="uUtpc5BEV1a3jRWs49Oi-4">
          <mxGeometry width="200" height="16" as="geometry" />
        </mxCell>
        <mxCell id="uUtpc5BEV1a3jRWs49Oi-6" value="ETA" style="html=1;align=center;spacing=0;verticalAlign=middle;strokeColor=none;fillColor=none;whiteSpace=wrap;fontStyle=1" vertex="1" parent="uUtpc5BEV1a3jRWs49Oi-4">
          <mxGeometry y="16" width="200" height="18" as="geometry" />
        </mxCell>
        <mxCell id="uUtpc5BEV1a3jRWs49Oi-7" value="" style="line;strokeWidth=0.25;fillColor=none;align=left;verticalAlign=middle;spacingTop=-1;spacingLeft=3;spacingRight=3;rotatable=0;labelPosition=right;points=[];portConstraint=eastwest;" vertex="1" parent="uUtpc5BEV1a3jRWs49Oi-4">
          <mxGeometry y="34" width="200" height="8" as="geometry" />
        </mxCell>
        <mxCell id="uUtpc5BEV1a3jRWs49Oi-8" value="Id=&quot;ETA-1&quot;" style="html=1;align=left;spacing=0;verticalAlign=middle;strokeColor=none;fillColor=none;whiteSpace=wrap;spacingLeft=10;" vertex="1" parent="uUtpc5BEV1a3jRWs49Oi-4">
          <mxGeometry y="42" width="200" height="16" as="geometry" />
        </mxCell>
        <mxCell id="uUtpc5BEV1a3jRWs49Oi-9" value="text=&quot;The system shall calculate and present estimated time of arrival (ETA) based on real-time traffic data, distance to destination and vehicle data.&quot;" style="html=1;align=left;spacing=0;verticalAlign=middle;strokeColor=none;fillColor=none;whiteSpace=wrap;spacingLeft=10;" vertex="1" parent="uUtpc5BEV1a3jRWs49Oi-4">
          <mxGeometry y="58" width="200" height="72" as="geometry" />
        </mxCell>
        <mxCell id="uUtpc5BEV1a3jRWs49Oi-10" value="" style="fontStyle=1;align=center;verticalAlign=middle;childLayout=stackLayout;horizontal=1;horizontalStack=0;resizeParent=1;resizeParentMax=0;resizeLast=0;marginBottom=0;" vertex="1" parent="1">
          <mxGeometry x="535" y="450.0000000000001" width="220" height="130" as="geometry" />
        </mxCell>
        <mxCell id="uUtpc5BEV1a3jRWs49Oi-11" value="&amp;lt;&amp;lt;requirement&amp;gt;&amp;gt;" style="html=1;align=center;spacing=0;verticalAlign=middle;strokeColor=none;fillColor=none;whiteSpace=wrap;spacingTop=3;" vertex="1" parent="uUtpc5BEV1a3jRWs49Oi-10">
          <mxGeometry width="220" height="16" as="geometry" />
        </mxCell>
        <mxCell id="uUtpc5BEV1a3jRWs49Oi-12" value="User Data Retrieval" style="html=1;align=center;spacing=0;verticalAlign=middle;strokeColor=none;fillColor=none;whiteSpace=wrap;fontStyle=1" vertex="1" parent="uUtpc5BEV1a3jRWs49Oi-10">
          <mxGeometry y="16" width="220" height="18" as="geometry" />
        </mxCell>
        <mxCell id="uUtpc5BEV1a3jRWs49Oi-13" value="" style="line;strokeWidth=0.25;fillColor=none;align=left;verticalAlign=middle;spacingTop=-1;spacingLeft=3;spacingRight=3;rotatable=0;labelPosition=right;points=[];portConstraint=eastwest;" vertex="1" parent="uUtpc5BEV1a3jRWs49Oi-10">
          <mxGeometry y="34" width="220" height="8" as="geometry" />
        </mxCell>
        <mxCell id="uUtpc5BEV1a3jRWs49Oi-14" value="Id=&quot;ETA-1.2&quot;" style="html=1;align=left;spacing=0;verticalAlign=middle;strokeColor=none;fillColor=none;whiteSpace=wrap;spacingLeft=10;" vertex="1" parent="uUtpc5BEV1a3jRWs49Oi-10">
          <mxGeometry y="42" width="220" height="16" as="geometry" />
        </mxCell>
        <mxCell id="uUtpc5BEV1a3jRWs49Oi-15" value="text=&quot;The system shall retrive relevant used data such as current destination, current speed, vehicle type and average speed based on the last 5 trips.&quot;" style="html=1;align=left;spacing=0;verticalAlign=middle;strokeColor=none;fillColor=none;whiteSpace=wrap;spacingLeft=10;" vertex="1" parent="uUtpc5BEV1a3jRWs49Oi-10">
          <mxGeometry y="58" width="220" height="72" as="geometry" />
        </mxCell>
        <mxCell id="uUtpc5BEV1a3jRWs49Oi-16" value="" style="fontStyle=1;align=center;verticalAlign=middle;childLayout=stackLayout;horizontal=1;horizontalStack=0;resizeParent=1;resizeParentMax=0;resizeLast=0;marginBottom=0;" vertex="1" parent="1">
          <mxGeometry x="290" y="450.0000000000001" width="210" height="110" as="geometry" />
        </mxCell>
        <mxCell id="uUtpc5BEV1a3jRWs49Oi-17" value="&amp;lt;&amp;lt;requirement&amp;gt;&amp;gt;" style="html=1;align=center;spacing=0;verticalAlign=middle;strokeColor=none;fillColor=none;whiteSpace=wrap;spacingTop=3;" vertex="1" parent="uUtpc5BEV1a3jRWs49Oi-16">
          <mxGeometry width="210" height="16" as="geometry" />
        </mxCell>
        <mxCell id="uUtpc5BEV1a3jRWs49Oi-18" value="Traffic Data Retrieval" style="html=1;align=center;spacing=0;verticalAlign=middle;strokeColor=none;fillColor=none;whiteSpace=wrap;fontStyle=1" vertex="1" parent="uUtpc5BEV1a3jRWs49Oi-16">
          <mxGeometry y="16" width="210" height="18" as="geometry" />
        </mxCell>
        <mxCell id="uUtpc5BEV1a3jRWs49Oi-19" value="" style="line;strokeWidth=0.25;fillColor=none;align=left;verticalAlign=middle;spacingTop=-1;spacingLeft=3;spacingRight=3;rotatable=0;labelPosition=right;points=[];portConstraint=eastwest;" vertex="1" parent="uUtpc5BEV1a3jRWs49Oi-16">
          <mxGeometry y="34" width="210" height="8" as="geometry" />
        </mxCell>
        <mxCell id="uUtpc5BEV1a3jRWs49Oi-20" value="Id=&quot;ETA-1.1&quot;" style="html=1;align=left;spacing=0;verticalAlign=middle;strokeColor=none;fillColor=none;whiteSpace=wrap;spacingLeft=10;" vertex="1" parent="uUtpc5BEV1a3jRWs49Oi-16">
          <mxGeometry y="42" width="210" height="16" as="geometry" />
        </mxCell>
        <mxCell id="uUtpc5BEV1a3jRWs49Oi-21" value="text=&quot;The system shall retrieve real-time traffic data such as traffic congestion or nearby accidents.&quot;" style="html=1;align=left;spacing=0;verticalAlign=middle;strokeColor=none;fillColor=none;whiteSpace=wrap;spacingLeft=10;" vertex="1" parent="uUtpc5BEV1a3jRWs49Oi-16">
          <mxGeometry y="58" width="210" height="52" as="geometry" />
        </mxCell>
        <mxCell id="uUtpc5BEV1a3jRWs49Oi-22" value="" style="fontStyle=1;align=center;verticalAlign=middle;childLayout=stackLayout;horizontal=1;horizontalStack=0;resizeParent=1;resizeParentMax=0;resizeLast=0;marginBottom=0;" vertex="1" parent="1">
          <mxGeometry x="370" y="650" width="210" height="110" as="geometry" />
        </mxCell>
        <mxCell id="uUtpc5BEV1a3jRWs49Oi-23" value="&amp;lt;&amp;lt;requirement&amp;gt;&amp;gt;" style="html=1;align=center;spacing=0;verticalAlign=middle;strokeColor=none;fillColor=none;whiteSpace=wrap;spacingTop=3;" vertex="1" parent="uUtpc5BEV1a3jRWs49Oi-22">
          <mxGeometry width="210" height="16" as="geometry" />
        </mxCell>
        <mxCell id="uUtpc5BEV1a3jRWs49Oi-24" value="Calculate ETA" style="html=1;align=center;spacing=0;verticalAlign=middle;strokeColor=none;fillColor=none;whiteSpace=wrap;fontStyle=1" vertex="1" parent="uUtpc5BEV1a3jRWs49Oi-22">
          <mxGeometry y="16" width="210" height="18" as="geometry" />
        </mxCell>
        <mxCell id="uUtpc5BEV1a3jRWs49Oi-25" value="" style="line;strokeWidth=0.25;fillColor=none;align=left;verticalAlign=middle;spacingTop=-1;spacingLeft=3;spacingRight=3;rotatable=0;labelPosition=right;points=[];portConstraint=eastwest;" vertex="1" parent="uUtpc5BEV1a3jRWs49Oi-22">
          <mxGeometry y="34" width="210" height="8" as="geometry" />
        </mxCell>
        <mxCell id="uUtpc5BEV1a3jRWs49Oi-26" value="Id=&quot;ETA-C-1&quot;" style="html=1;align=left;spacing=0;verticalAlign=middle;strokeColor=none;fillColor=none;whiteSpace=wrap;spacingLeft=10;" vertex="1" parent="uUtpc5BEV1a3jRWs49Oi-22">
          <mxGeometry y="42" width="210" height="16" as="geometry" />
        </mxCell>
        <mxCell id="uUtpc5BEV1a3jRWs49Oi-27" value="text=&quot;The system shall calculate the ETA based on user and traffic data.&quot;" style="html=1;align=left;spacing=0;verticalAlign=middle;strokeColor=none;fillColor=none;whiteSpace=wrap;spacingLeft=10;" vertex="1" parent="uUtpc5BEV1a3jRWs49Oi-22">
          <mxGeometry y="58" width="210" height="52" as="geometry" />
        </mxCell>
        <mxCell id="uUtpc5BEV1a3jRWs49Oi-30" value="&amp;lt;&amp;lt;deriveReq&amp;gt;&amp;gt;" style="endArrow=open;html=1;edgeStyle=none;endSize=12;dashed=1;rounded=0;exitX=0.5;exitY=0;exitDx=0;exitDy=0;entryX=0.5;entryY=1;entryDx=0;entryDy=0;" edge="1" source="uUtpc5BEV1a3jRWs49Oi-23" target="uUtpc5BEV1a3jRWs49Oi-15" parent="1">
          <mxGeometry relative="1" as="geometry">
            <mxPoint x="660" y="630" as="sourcePoint" />
            <mxPoint x="780" y="630" as="targetPoint" />
          </mxGeometry>
        </mxCell>
        <mxCell id="uUtpc5BEV1a3jRWs49Oi-31" value="&amp;lt;&amp;lt;deriveReq&amp;gt;&amp;gt;" style="endArrow=open;html=1;edgeStyle=none;endSize=12;dashed=1;rounded=0;exitX=0.5;exitY=0;exitDx=0;exitDy=0;entryX=0.5;entryY=1;entryDx=0;entryDy=0;" edge="1" parent="1" source="uUtpc5BEV1a3jRWs49Oi-23" target="uUtpc5BEV1a3jRWs49Oi-21">
          <mxGeometry relative="1" as="geometry">
            <mxPoint x="660" y="630" as="sourcePoint" />
            <mxPoint x="780" y="630" as="targetPoint" />
          </mxGeometry>
        </mxCell>
        <mxCell id="uUtpc5BEV1a3jRWs49Oi-33" value="" style="fontStyle=1;align=center;verticalAlign=middle;childLayout=stackLayout;horizontal=1;horizontalStack=0;resizeParent=1;resizeParentMax=0;resizeLast=0;marginBottom=0;" vertex="1" parent="1">
          <mxGeometry x="790" y="450.0000000000001" width="210" height="100" as="geometry" />
        </mxCell>
        <mxCell id="uUtpc5BEV1a3jRWs49Oi-34" value="&amp;lt;&amp;lt;requirement&amp;gt;&amp;gt;" style="html=1;align=center;spacing=0;verticalAlign=middle;strokeColor=none;fillColor=none;whiteSpace=wrap;spacingTop=3;" vertex="1" parent="uUtpc5BEV1a3jRWs49Oi-33">
          <mxGeometry width="210" height="16" as="geometry" />
        </mxCell>
        <mxCell id="uUtpc5BEV1a3jRWs49Oi-35" value="Present ETA" style="html=1;align=center;spacing=0;verticalAlign=middle;strokeColor=none;fillColor=none;whiteSpace=wrap;fontStyle=1" vertex="1" parent="uUtpc5BEV1a3jRWs49Oi-33">
          <mxGeometry y="16" width="210" height="18" as="geometry" />
        </mxCell>
        <mxCell id="uUtpc5BEV1a3jRWs49Oi-36" value="" style="line;strokeWidth=0.25;fillColor=none;align=left;verticalAlign=middle;spacingTop=-1;spacingLeft=3;spacingRight=3;rotatable=0;labelPosition=right;points=[];portConstraint=eastwest;" vertex="1" parent="uUtpc5BEV1a3jRWs49Oi-33">
          <mxGeometry y="34" width="210" height="8" as="geometry" />
        </mxCell>
        <mxCell id="uUtpc5BEV1a3jRWs49Oi-37" value="Id=&quot;ETA-1.3&quot;" style="html=1;align=left;spacing=0;verticalAlign=middle;strokeColor=none;fillColor=none;whiteSpace=wrap;spacingLeft=10;" vertex="1" parent="uUtpc5BEV1a3jRWs49Oi-33">
          <mxGeometry y="42" width="210" height="16" as="geometry" />
        </mxCell>
        <mxCell id="uUtpc5BEV1a3jRWs49Oi-38" value="text=&quot;The system shall display the calculated ETA to the user.&quot;" style="html=1;align=left;spacing=0;verticalAlign=middle;strokeColor=none;fillColor=none;whiteSpace=wrap;spacingLeft=10;" vertex="1" parent="uUtpc5BEV1a3jRWs49Oi-33">
          <mxGeometry y="58" width="210" height="42" as="geometry" />
        </mxCell>
        <mxCell id="uUtpc5BEV1a3jRWs49Oi-39" value="" style="rounded=0;html=1;labelBackgroundColor=none;endArrow=none;edgeStyle=elbowEdgeStyle;elbow=vertical;startArrow=sysMLPackCont;startSize=12;exitX=0.5;exitY=1;exitDx=0;exitDy=0;entryX=0.5;entryY=0;entryDx=0;entryDy=0;" edge="1" parent="1" source="uUtpc5BEV1a3jRWs49Oi-9" target="uUtpc5BEV1a3jRWs49Oi-34">
          <mxGeometry relative="1" as="geometry">
            <mxPoint x="680" y="300" as="sourcePoint" />
            <mxPoint x="775" y="430" as="targetPoint" />
          </mxGeometry>
        </mxCell>
        <mxCell id="uUtpc5BEV1a3jRWs49Oi-40" value="" style="fontStyle=1;align=center;verticalAlign=middle;childLayout=stackLayout;horizontal=1;horizontalStack=0;resizeParent=1;resizeParentMax=0;resizeLast=0;marginBottom=0;" vertex="1" parent="1">
          <mxGeometry x="250" y="200" width="200" height="100" as="geometry" />
        </mxCell>
        <mxCell id="uUtpc5BEV1a3jRWs49Oi-41" value="&amp;lt;&amp;lt;NF requirement&amp;gt;&amp;gt;" style="html=1;align=center;spacing=0;verticalAlign=middle;strokeColor=none;fillColor=none;whiteSpace=wrap;spacingTop=3;" vertex="1" parent="uUtpc5BEV1a3jRWs49Oi-40">
          <mxGeometry width="200" height="16" as="geometry" />
        </mxCell>
        <mxCell id="uUtpc5BEV1a3jRWs49Oi-42" value="Dependability" style="html=1;align=center;spacing=0;verticalAlign=middle;strokeColor=none;fillColor=none;whiteSpace=wrap;fontStyle=1" vertex="1" parent="uUtpc5BEV1a3jRWs49Oi-40">
          <mxGeometry y="16" width="200" height="18" as="geometry" />
        </mxCell>
        <mxCell id="uUtpc5BEV1a3jRWs49Oi-43" value="" style="line;strokeWidth=0.25;fillColor=none;align=left;verticalAlign=middle;spacingTop=-1;spacingLeft=3;spacingRight=3;rotatable=0;labelPosition=right;points=[];portConstraint=eastwest;" vertex="1" parent="uUtpc5BEV1a3jRWs49Oi-40">
          <mxGeometry y="34" width="200" height="8" as="geometry" />
        </mxCell>
        <mxCell id="uUtpc5BEV1a3jRWs49Oi-44" value="Id=&quot;ETA-NF-1&quot;" style="html=1;align=left;spacing=0;verticalAlign=middle;strokeColor=none;fillColor=none;whiteSpace=wrap;spacingLeft=10;" vertex="1" parent="uUtpc5BEV1a3jRWs49Oi-40">
          <mxGeometry y="42" width="200" height="16" as="geometry" />
        </mxCell>
        <mxCell id="uUtpc5BEV1a3jRWs49Oi-45" value="text=&quot;The system shall recompute the ETA calculation periodically. Every 5 seconds.&quot;" style="html=1;align=left;spacing=0;verticalAlign=middle;strokeColor=none;fillColor=none;whiteSpace=wrap;spacingLeft=10;" vertex="1" parent="uUtpc5BEV1a3jRWs49Oi-40">
          <mxGeometry y="58" width="200" height="42" as="geometry" />
        </mxCell>
        <mxCell id="uUtpc5BEV1a3jRWs49Oi-46" value="" style="fontStyle=1;align=center;verticalAlign=middle;childLayout=stackLayout;horizontal=1;horizontalStack=0;resizeParent=1;resizeParentMax=0;resizeLast=0;marginBottom=0;" vertex="1" parent="1">
          <mxGeometry x="870" y="200" width="200" height="90" as="geometry" />
        </mxCell>
        <mxCell id="uUtpc5BEV1a3jRWs49Oi-47" value="&amp;lt;&amp;lt;NF requirement&amp;gt;&amp;gt;" style="html=1;align=center;spacing=0;verticalAlign=middle;strokeColor=none;fillColor=none;whiteSpace=wrap;spacingTop=3;" vertex="1" parent="uUtpc5BEV1a3jRWs49Oi-46">
          <mxGeometry width="200" height="16" as="geometry" />
        </mxCell>
        <mxCell id="uUtpc5BEV1a3jRWs49Oi-48" value="Performance" style="html=1;align=center;spacing=0;verticalAlign=middle;strokeColor=none;fillColor=none;whiteSpace=wrap;fontStyle=1" vertex="1" parent="uUtpc5BEV1a3jRWs49Oi-46">
          <mxGeometry y="16" width="200" height="18" as="geometry" />
        </mxCell>
        <mxCell id="uUtpc5BEV1a3jRWs49Oi-49" value="" style="line;strokeWidth=0.25;fillColor=none;align=left;verticalAlign=middle;spacingTop=-1;spacingLeft=3;spacingRight=3;rotatable=0;labelPosition=right;points=[];portConstraint=eastwest;" vertex="1" parent="uUtpc5BEV1a3jRWs49Oi-46">
          <mxGeometry y="34" width="200" height="8" as="geometry" />
        </mxCell>
        <mxCell id="uUtpc5BEV1a3jRWs49Oi-50" value="Id=&quot;ETA-NF-2&quot;" style="html=1;align=left;spacing=0;verticalAlign=middle;strokeColor=none;fillColor=none;whiteSpace=wrap;spacingLeft=10;" vertex="1" parent="uUtpc5BEV1a3jRWs49Oi-46">
          <mxGeometry y="42" width="200" height="16" as="geometry" />
        </mxCell>
        <mxCell id="uUtpc5BEV1a3jRWs49Oi-51" value="text=&quot;The system shall compute an ETA in less than 5 seconds.&quot;" style="html=1;align=left;spacing=0;verticalAlign=middle;strokeColor=none;fillColor=none;whiteSpace=wrap;spacingLeft=10;" vertex="1" parent="uUtpc5BEV1a3jRWs49Oi-46">
          <mxGeometry y="58" width="200" height="32" as="geometry" />
        </mxCell>
        <mxCell id="uUtpc5BEV1a3jRWs49Oi-52" value="" style="rounded=0;html=1;labelBackgroundColor=none;endArrow=none;edgeStyle=elbowEdgeStyle;elbow=vertical;startArrow=sysMLPackCont;startSize=12;exitX=1;exitY=0.25;exitDx=0;exitDy=0;entryX=0;entryY=1;entryDx=0;entryDy=0;" edge="1" parent="1" source="uUtpc5BEV1a3jRWs49Oi-9" target="uUtpc5BEV1a3jRWs49Oi-50">
          <mxGeometry relative="1" as="geometry">
            <mxPoint x="655" y="320" as="sourcePoint" />
            <mxPoint x="905" y="460" as="targetPoint" />
          </mxGeometry>
        </mxCell>
        <mxCell id="uUtpc5BEV1a3jRWs49Oi-53" value="" style="rounded=0;html=1;labelBackgroundColor=none;endArrow=none;edgeStyle=elbowEdgeStyle;elbow=vertical;startArrow=sysMLPackCont;startSize=12;exitX=0;exitY=0.25;exitDx=0;exitDy=0;entryX=1;entryY=0;entryDx=0;entryDy=0;" edge="1" parent="1" source="uUtpc5BEV1a3jRWs49Oi-9" target="uUtpc5BEV1a3jRWs49Oi-45">
          <mxGeometry relative="1" as="geometry">
            <mxPoint x="755" y="266" as="sourcePoint" />
            <mxPoint x="880" y="268" as="targetPoint" />
          </mxGeometry>
        </mxCell>
      </root>
    </mxGraphModel>
  </diagram>
</mxfile>
